<svg xmlns="http://www.w3.org/2000/svg" viewBox="0 0 64 64" fill="none">
  <path d="M50 30H20c-5.5 0-10-4.5-10-10 0-4.6 3.1-8.4 7.3-9.6C18.5 3.6 24-1 30.5-1c7.2 0 13 5.8 13 13 0 0.3 0 0.6-0.1 0.8 3.9 1 6.6 4.6 6.6 8.7 0 4.1-2.6 7.5-6 8.5z" fill="#9CB4C8"/>
  <g stroke="#87CEEB" stroke-width="2" stroke-linecap="round" stroke-dasharray="4 6">
    <line x1="18" y1="38" x2="18" y2="58"/>
    <line x1="28" y1="36" x2="28" y2="62"/>
    <line x1="38" y1="38" x2="38" y2="56"/>
    <line x1="48" y1="36" x2="48" y2="54"/>
  </g>
</svg>
