<svg xmlns="http://www.w3.org/2000/svg" viewBox="0 0 64 64" fill="none">
  <circle cx="22" cy="22" r="10" fill="#FFD93D"/>
  <g stroke="#FFD93D" stroke-width="2" stroke-linecap="round">
    <line x1="22" y1="4" x2="22" y2="9"/>
    <line x1="22" y1="35" x2="22" y2="40"/>
    <line x1="4" y1="22" x2="9" y2="22"/>
    <line x1="35" y1="22" x2="40" y2="22"/>
    <line x1="9.3" y1="9.3" x2="12.8" y2="12.8"/>
    <line x1="31.2" y1="31.2" x2="34.7" y2="34.7"/>
    <line x1="9.3" y1="34.7" x2="12.8" y2="31.2"/>
    <line x1="31.2" y1="12.8" x2="34.7" y2="9.3"/>
  </g>
  <path d="M52 52H26c-5.5 0-10-4.5-10-10 0-4.6 3.1-8.4 7.3-9.6C24.5 25.6 30 21 36.5 21c7.2 0 13 5.8 13 13 0 0.3 0 0.6-0.1 0.8 3.9 1 6.6 4.6 6.6 8.7 0 4.1-2.6 7.5-6 8.5z" fill="#E8E8E8"/>
</svg>
