<svg xmlns="http://www.w3.org/2000/svg" viewBox="0 0 64 64" fill="none">
  <path d="M50 32H20c-5.5 0-10-4.5-10-10 0-4.6 3.1-8.4 7.3-9.6C18.5 5.6 24 1 30.5 1c7.2 0 13 5.8 13 13 0 0.3 0 0.6-0.1 0.8 3.9 1 6.6 4.6 6.6 8.7 0 4.1-2.6 7.5-6 8.5z" fill="#5A6A7A"/>
  <g stroke="#4FC3F7" stroke-width="2" stroke-linecap="round">
    <line x1="20" y1="38" x2="16" y2="50"/>
    <line x1="30" y1="38" x2="26" y2="54"/>
    <line x1="40" y1="38" x2="36" y2="50"/>
    <line x1="25" y1="46" x2="22" y2="58"/>
    <line x1="35" y1="46" x2="32" y2="62"/>
    <line x1="45" y1="44" x2="42" y2="56"/>
  </g>
</svg>
