<svg xmlns="http://www.w3.org/2000/svg" viewBox="0 0 64 64" fill="none">
  <path d="M50 32H20c-5.5 0-10-4.5-10-10 0-4.6 3.1-8.4 7.3-9.6C18.5 5.6 24 1 30.5 1c7.2 0 13 5.8 13 13 0 0.3 0 0.6-0.1 0.8 3.9 1 6.6 4.6 6.6 8.7 0 4.1-2.6 7.5-6 8.5z" fill="#A0B0C0"/>
  <circle cx="20" cy="42" r="3" fill="#FFF"/>
  <circle cx="32" cy="48" r="3" fill="#FFF"/>
  <circle cx="44" cy="42" r="3" fill="#FFF"/>
  <circle cx="26" cy="56" r="3" fill="#FFF"/>
  <circle cx="38" cy="58" r="3" fill="#FFF"/>
  <circle cx="14" cy="54" r="2" fill="#FFF"/>
  <circle cx="50" cy="52" r="2" fill="#FFF"/>
</svg>
