<svg xmlns="http://www.w3.org/2000/svg" viewBox="0 0 64 64" fill="none">
  <path d="M50 28H20c-5.5 0-10-4.5-10-10 0-4.6 3.1-8.4 7.3-9.6C18.5 1.6 24-3 30.5-3c7.2 0 13 5.8 13 13 0 0.3 0 0.6-0.1 0.8 3.9 1 6.6 4.6 6.6 8.7 0 4.1-2.6 7.5-6 8.5z" fill="#5A6378"/>
  <polygon points="36,32 28,46 33,46 28,62 42,42 36,42 42,32" fill="#FFD700"/>
  <g stroke="#4FC3F7" stroke-width="2" stroke-linecap="round">
    <line x1="18" y1="36" x2="14" y2="48"/>
    <line x1="48" y1="36" x2="44" y2="48"/>
    <line x1="22" y1="50" x2="18" y2="60"/>
    <line x1="50" y1="48" x2="46" y2="58"/>
  </g>
</svg>
